<!DOCTYPE svg PUBLIC "-//W3C//DTD SVG 1.1//EN" "http://www.w3.org/Graphics/SVG/1.1/DTD/svg11.dtd">
<!-- Uploaded to: SVG Repo, www.svgrepo.com, Transformed by: SVG Repo Mixer Tools -->
<svg version="1.1" id="Icons" xmlns="http://www.w3.org/2000/svg" xmlns:xlink="http://www.w3.org/1999/xlink" viewBox="-30.08 -30.08 92.16 92.16" xml:space="preserve" width="64px" height="64px" fill="#ffffff" stroke="#ffffff">
<g id="SVGRepo_bgCarrier" stroke-width="0"/>
<g id="SVGRepo_tracerCarrier" stroke-linecap="round" stroke-linejoin="round"/>
<g id="SVGRepo_iconCarrier"> <style type="text/css"> .st0{fill:none;stroke:#ffffff;stroke-width:2;stroke-linecap:round;stroke-linejoin:round;stroke-miterlimit:10;} </style> <g> <path d="M17,2.1V15h3.1c0.2-3.8,1.7-7.4,4.3-10.2C22.3,3.2,19.7,2.2,17,2.1z"/> <path d="M22.1,17c0.2,3.3,1.6,6.4,3.8,8.9c2.3-2.3,3.8-5.4,4.1-8.9H22.1z"/> <path d="M2.1,17c0.2,3.5,1.7,6.6,4.1,8.9c2.3-2.5,3.6-5.6,3.8-8.9H2.1z"/> <path d="M9.9,15c-0.2-3.3-1.6-6.4-3.8-8.9C3.8,8.4,2.3,11.5,2.1,15H9.9z"/> <path d="M25.9,6.1c-2.3,2.5-3.6,5.6-3.8,8.9h7.9C29.7,11.5,28.2,8.4,25.9,6.1z"/> <path d="M20.1,17H17v12.9c2.7-0.2,5.3-1.2,7.4-2.7C21.8,24.4,20.3,20.8,20.1,17z"/> <path d="M15,17h-3.1c-0.2,3.8-1.7,7.4-4.3,10.2c2.1,1.6,4.6,2.6,7.4,2.7V17z"/> <path d="M11.9,15H15V2.1c-2.7,0.2-5.3,1.2-7.4,2.7C10.2,7.6,11.7,11.2,11.9,15z"/> </g> </g>
</svg>